# xmcd CD database file
#
# Track frame offsets:
#	150
#	17295
#	34392
#	50625
#	69622
#	82697
#	104490
#	116765
#	141122
#	157140
#	178787
#	196202
#	211700
#	228492
#	243657
#	260250
#
# Disc length: 3699 seconds
#
# Revision: 1
# Processed by: cddbd v1.4b42PL1 Copyright (c) Steve Scherf et al.
# Submitted via: CDex 1.40Beta8
#
DISCID=dd0e7110
DTITLE=Garth Hewitt - Memories
DYEAR=1992
DGENRE=Country
TTITLE0=Dance On Injustice
TTITLE1=Namibia
TTITLE2=Travellin' (Back Home to You)
TTITLE3=Deep Silence
TTITLE4=Jesus of the Scars
TTITLE5=She Sang Beyan Ko
TTITLE6=That's Why We're Here
TTITLE7=Chain of Love
TTITLE8=Get Up and Dance
TTITLE9=Memories
TTITLE10=A Child is the Future
TTITLE11=Deep Down in Debt
TTITLE12=Imelda Marcos' Disco Dancing Shoes
TTITLE13=Our Silent Eyes
TTITLE14=A Future and a Hope
TTITLE15=Light a Candle in the Darkness
EXTD=YEAR: 1992 ID3G: 2
EXTT0=
EXTT1=
EXTT2=
EXTT3=
EXTT4=
EXTT5=
EXTT6=
EXTT7=
EXTT8=
EXTT9=
EXTT10=
EXTT11=
EXTT12=
EXTT13=
EXTT14=
EXTT15=
PLAYORDER=
